<svg width="492" height="610" viewBox="0 0 492 610" fill="none" xmlns="http://www.w3.org/2000/svg">
<rect width="492" height="610" fill="#E5E5E5"/>
<g id="fac 1" clip-path="url(#clip0)">
<rect width="492" height="610" fill="white"/>
<g id="face">
<path id="Vector 2" d="M319 578C308.2 534.4 314.5 461.833 319 431H175C185.8 464.2 162.833 542.833 150 578H319Z" fill="#FFF4E2" stroke="black"/>
<path id="Vector" d="M93.5032 142.752C89.4584 160.389 96.4449 224.273 104.535 246.222C104.535 246.222 87.6198 232.112 89.0907 261.115C89.0907 261.115 89.7525 277.968 96.7391 292.626C96.7391 292.626 101.593 318.337 106.741 324.608C111.889 330.878 106.373 339.109 115.934 338.325C115.934 338.325 118.875 370.463 168.884 429.253C168.884 429.253 206.391 477.774 247.575 477.852C247.575 477.852 275.521 477.852 310.969 439.051C314.866 434.818 319.058 430.664 322.956 425.725C322.956 425.725 365.611 381.045 372.23 342.636V335.817C372.23 335.817 373.7 345.772 383.996 335.582C394.292 325.391 390.983 313.242 390.983 313.242C390.983 313.242 396.866 282.671 399.073 273.265C399.073 273.265 404.956 247.397 399.808 234.072C394.363 236.123 389.36 239.322 385.1 243.478C385.1 243.478 387.306 164.308 386.938 148.239C386.57 132.17 374.068 91.4091 345.387 75.7319C316.705 60.0547 242.427 53 242.427 53C242.427 53 166.678 56.9193 140.938 76.5158C115.198 96.1123 97.548 125.115 93.5032 142.752Z" fill="#FFF4E2" stroke="black" stroke-miterlimit="10"/>
</g>
<g id="eyebrow">
<path id="Vector_2" d="M207.39 207.723C207.39 207.723 158.117 197.611 136.936 198.473L118.33 210.075L133.921 194.084C133.921 194.084 136.789 191.811 145.173 192.594L205.772 193.77L207.39 207.723Z" fill="black"/>
<path id="Vector_3" d="M278.726 208.114C278.726 208.114 331.162 197.924 353.74 198.943L373.67 211.015L356.902 194.397C356.902 194.397 353.887 192.045 344.988 192.829L280.344 193.77L278.726 208.114Z" fill="black"/>
</g>
<g id="eyes">
<path id="Vector_4" d="M208.587 273C208.587 273 203.071 246.349 177.11 241.646C173.034 240.783 168.905 240.233 164.755 240H160.269C151.517 240.078 139.898 247.055 136 249.485C136 249.485 136.735 251.131 138.133 253.718C142.398 261.321 152.841 276.449 167.77 276.058C167.77 276.058 201.306 274.568 206.674 274.96C206.674 274.882 209.396 275.039 208.587 273Z" fill="white" stroke="black" stroke-miterlimit="10"/>
<path id="Vector_5" d="M166.961 275.978C163.903 274.103 161.416 271.33 159.796 267.99C158.176 264.649 157.492 260.883 157.825 257.139C158.158 253.396 159.495 249.834 161.676 246.878C163.857 243.922 166.789 241.697 170.124 240.469C170.124 240.469 184.317 241.958 190.569 246.818C194.099 249.64 194.761 255.206 194.466 260.301C194.289 263.272 193.474 266.16 192.085 268.742C190.695 271.324 188.767 273.532 186.45 275.194L166.961 275.978Z" fill="url(#paint0_linear)" stroke="black" stroke-miterlimit="10"/>
<path id="Vector_6" d="M177.478 269.316C183.449 269.316 188.289 264.157 188.289 257.794C188.289 251.43 183.449 246.271 177.478 246.271C171.507 246.271 166.667 251.43 166.667 257.794C166.667 264.157 171.507 269.316 177.478 269.316Z" fill="black"/>
<path id="Vector_7" d="M172.33 257.637H172.036C171.379 257.597 170.736 257.419 170.143 257.113C169.551 256.808 169.02 256.381 168.583 255.856C168.146 255.332 167.81 254.721 167.595 254.058C167.38 253.395 167.289 252.693 167.329 251.993C167.421 250.641 167.986 249.375 168.912 248.446C169.839 247.517 171.058 246.992 172.33 246.976H172.698C173.355 247.026 173.997 247.214 174.586 247.528C175.175 247.843 175.7 248.279 176.13 248.811C176.561 249.343 176.889 249.96 177.095 250.627C177.301 251.294 177.381 251.998 177.331 252.699C177.255 254.05 176.693 255.318 175.761 256.238C174.829 257.158 173.6 257.659 172.33 257.637V257.637Z" fill="white"/>
<path id="Vector_8" d="M172.33 247.368H172.698C173.914 247.469 175.045 248.076 175.843 249.06C176.642 250.043 177.044 251.322 176.963 252.62C176.906 253.882 176.39 255.07 175.526 255.933C174.661 256.796 173.515 257.267 172.33 257.245H172.036C171.427 257.205 170.832 257.037 170.284 256.752C169.736 256.466 169.246 256.067 168.843 255.58C168.44 255.092 168.131 254.524 167.934 253.908C167.738 253.293 167.657 252.642 167.697 251.993C167.789 250.745 168.315 249.579 169.172 248.723C170.029 247.867 171.156 247.384 172.33 247.368V247.368ZM172.33 246.584C170.973 246.599 169.67 247.154 168.676 248.14C167.683 249.126 167.071 250.473 166.961 251.915C166.911 252.666 167.001 253.421 167.226 254.136C167.45 254.851 167.805 255.511 168.27 256.079C168.735 256.647 169.3 257.112 169.934 257.447C170.567 257.781 171.257 257.979 171.962 258.029H172.33C173.698 258.051 175.02 257.509 176.021 256.515C177.022 255.522 177.623 254.154 177.699 252.699C177.749 251.947 177.659 251.192 177.434 250.477C177.21 249.762 176.855 249.102 176.39 248.534C175.926 247.966 175.36 247.501 174.726 247.167C174.093 246.832 173.403 246.634 172.698 246.584H172.33Z" fill="black"/>
<path id="Vector_9" d="M181.743 265.005C181.202 264.885 180.717 264.564 180.375 264.101C180.033 263.637 179.855 263.06 179.872 262.47C179.89 261.881 180.102 261.316 180.471 260.877C180.84 260.437 181.343 260.151 181.891 260.067H182.038C182.344 260.077 182.645 260.152 182.923 260.289C183.201 260.425 183.45 260.62 183.656 260.861C183.862 261.103 184.02 261.386 184.121 261.694C184.222 262.002 184.264 262.328 184.244 262.654C184.206 263.291 183.942 263.89 183.505 264.327C183.067 264.764 182.49 265.006 181.891 265.005H181.743Z" fill="white"/>
<path id="Vector_10" d="M181.891 260.459H182.038C182.295 260.469 182.549 260.534 182.782 260.65C183.016 260.767 183.224 260.933 183.396 261.138C183.568 261.343 183.699 261.583 183.782 261.844C183.864 262.104 183.896 262.38 183.876 262.654C183.839 263.187 183.614 263.686 183.245 264.05C182.877 264.413 182.393 264.615 181.891 264.613H181.817C181.556 264.593 181.301 264.519 181.067 264.394C180.834 264.268 180.625 264.095 180.454 263.884C180.283 263.673 180.153 263.428 180.072 263.163C179.99 262.898 179.958 262.618 179.978 262.34C180.016 261.827 180.233 261.348 180.588 260.999C180.943 260.65 181.408 260.457 181.891 260.459V260.459ZM181.891 259.675C181.553 259.664 181.216 259.725 180.9 259.853C180.584 259.982 180.295 260.175 180.049 260.423C179.803 260.67 179.605 260.967 179.467 261.296C179.329 261.625 179.253 261.98 179.243 262.34C179.202 263.097 179.441 263.84 179.909 264.412C180.376 264.983 181.035 265.337 181.744 265.397H181.891C182.533 265.316 183.127 264.993 183.566 264.487C184.006 263.981 184.262 263.325 184.288 262.636C184.315 261.947 184.11 261.271 183.711 260.728C183.312 260.186 182.745 259.812 182.111 259.675H181.891Z" fill="black"/>
<path id="Vector_11" d="M284.188 273C284.188 273 289.704 246.349 315.665 241.646C319.741 240.783 323.87 240.233 328.02 240H332.506C341.257 240.078 352.877 247.055 356.775 249.485C356.775 249.485 356.039 251.131 354.642 253.718C350.377 261.321 339.934 276.449 325.005 276.058C325.005 276.058 291.469 274.568 286.1 274.96C286.1 274.882 283.379 275.039 284.188 273Z" fill="white" stroke="black" stroke-miterlimit="10"/>
<g id="Vector_12">
<path d="M325.813 275.978C328.872 274.103 331.359 271.33 332.979 267.99C334.599 264.649 335.283 260.883 334.95 257.139C334.616 253.396 333.28 249.834 331.099 246.878C328.918 243.922 325.986 241.697 322.651 240.469C322.651 240.469 308.457 241.958 302.206 246.818C298.676 249.64 298.014 255.206 298.308 260.301C298.486 263.272 299.3 266.16 300.69 268.742C302.08 271.324 304.008 273.532 306.325 275.194L325.813 275.978Z" fill="#C4C4C4"/>
<path d="M325.813 275.978C328.872 274.103 331.359 271.33 332.979 267.99C334.599 264.649 335.283 260.883 334.95 257.139C334.616 253.396 333.28 249.834 331.099 246.878C328.918 243.922 325.986 241.697 322.651 240.469C322.651 240.469 308.457 241.958 302.206 246.818C298.676 249.64 298.014 255.206 298.308 260.301C298.486 263.272 299.3 266.16 300.69 268.742C302.08 271.324 304.008 273.532 306.325 275.194L325.813 275.978Z" fill="url(#paint1_linear)"/>
<path d="M325.813 275.978C328.872 274.103 331.359 271.33 332.979 267.99C334.599 264.649 335.283 260.883 334.95 257.139C334.616 253.396 333.28 249.834 331.099 246.878C328.918 243.922 325.986 241.697 322.651 240.469C322.651 240.469 308.457 241.958 302.206 246.818C298.676 249.64 298.014 255.206 298.308 260.301C298.486 263.272 299.3 266.16 300.69 268.742C302.08 271.324 304.008 273.532 306.325 275.194L325.813 275.978Z" stroke="black" stroke-miterlimit="10"/>
</g>
<path id="Vector_13" d="M315.297 269.316C321.268 269.316 326.108 264.157 326.108 257.794C326.108 251.43 321.268 246.271 315.297 246.271C309.326 246.271 304.486 251.43 304.486 257.794C304.486 264.157 309.326 269.316 315.297 269.316Z" fill="black"/>
<path id="Vector_14" d="M320.445 257.637C319.175 257.659 317.946 257.158 317.014 256.238C316.082 255.318 315.52 254.05 315.444 252.699C315.394 251.998 315.474 251.294 315.68 250.627C315.886 249.96 316.214 249.343 316.644 248.811C317.075 248.279 317.6 247.843 318.189 247.528C318.778 247.214 319.42 247.026 320.077 246.976H320.445C321.717 246.992 322.936 247.517 323.862 248.446C324.789 249.375 325.354 250.641 325.446 251.993C325.486 252.693 325.395 253.395 325.18 254.058C324.965 254.721 324.629 255.332 324.192 255.856C323.754 256.381 323.224 256.808 322.632 257.113C322.039 257.419 321.396 257.597 320.739 257.637H320.445Z" fill="white"/>
<path id="Vector_15" d="M320.445 247.368C321.619 247.384 322.746 247.867 323.603 248.723C324.46 249.579 324.986 250.745 325.078 251.993C325.118 252.642 325.037 253.293 324.841 253.908C324.644 254.524 324.335 255.092 323.932 255.58C323.529 256.067 323.039 256.466 322.491 256.752C321.943 257.037 321.348 257.205 320.739 257.245H320.445C319.26 257.267 318.114 256.796 317.249 255.933C316.384 255.07 315.869 253.882 315.812 252.62C315.731 251.322 316.133 250.043 316.932 249.06C317.73 248.076 318.861 247.469 320.077 247.368H320.445V247.368ZM320.445 246.584H320.077C319.372 246.634 318.682 246.832 318.048 247.167C317.415 247.501 316.849 247.966 316.385 248.534C315.92 249.102 315.565 249.762 315.341 250.477C315.116 251.192 315.026 251.947 315.076 252.699C315.152 254.154 315.753 255.522 316.754 256.515C317.755 257.509 319.077 258.051 320.445 258.029H320.813C321.518 257.979 322.208 257.781 322.841 257.447C323.475 257.112 324.04 256.647 324.505 256.079C324.97 255.511 325.324 254.851 325.549 254.136C325.774 253.421 325.863 252.666 325.813 251.915C325.703 250.473 325.092 249.126 324.099 248.14C323.105 247.154 321.802 246.599 320.445 246.584V246.584Z" fill="black"/>
<path id="Vector_16" d="M310.884 265.005C310.285 265.006 309.707 264.764 309.27 264.327C308.833 263.89 308.568 263.291 308.531 262.654C308.511 262.328 308.553 262.002 308.654 261.694C308.755 261.386 308.913 261.103 309.119 260.861C309.325 260.62 309.574 260.425 309.852 260.289C310.13 260.152 310.431 260.077 310.737 260.067H310.884C311.432 260.151 311.935 260.437 312.304 260.877C312.673 261.316 312.885 261.881 312.902 262.47C312.92 263.06 312.742 263.637 312.4 264.101C312.058 264.564 311.573 264.885 311.031 265.005H310.884Z" fill="white"/>
<path id="Vector_17" d="M310.884 260.459C311.126 260.448 311.367 260.489 311.594 260.577C311.821 260.666 312.029 260.802 312.206 260.977C312.384 261.152 312.527 261.362 312.629 261.596C312.73 261.83 312.787 262.083 312.796 262.34C312.816 262.618 312.785 262.898 312.703 263.163C312.621 263.428 312.491 263.673 312.321 263.884C312.15 264.095 311.941 264.268 311.707 264.394C311.474 264.519 311.219 264.593 310.958 264.613H310.884C310.382 264.615 309.898 264.413 309.53 264.05C309.161 263.686 308.936 263.187 308.899 262.654C308.879 262.38 308.911 262.104 308.993 261.844C309.076 261.583 309.207 261.343 309.379 261.138C309.55 260.933 309.759 260.767 309.993 260.65C310.226 260.534 310.479 260.469 310.737 260.459H310.884V260.459ZM310.884 259.675H310.664C310.03 259.812 309.463 260.186 309.064 260.728C308.665 261.271 308.46 261.947 308.487 262.636C308.513 263.325 308.769 263.981 309.209 264.487C309.648 264.993 310.242 265.316 310.884 265.397H311.031C311.74 265.337 312.399 264.983 312.866 264.412C313.334 263.84 313.573 263.097 313.532 262.34C313.522 261.98 313.446 261.625 313.308 261.296C313.17 260.967 312.972 260.67 312.726 260.423C312.48 260.175 312.191 259.982 311.875 259.853C311.559 259.725 311.222 259.664 310.884 259.675V259.675Z" fill="black"/>
<path id="wink" d="M284 273.178C297.189 275.614 335.552 277.242 358.163 259.941" stroke="black" stroke-width="8" stroke-linecap="round" stroke-linejoin="round"/>
</g>
<g id="mouse">
<path id="Vector_18" d="M200.036 388.168C200.036 388.168 205.552 398.593 226.879 392.322C226.879 392.322 233.498 391.538 237.175 393.89C237.175 393.89 241.587 396.32 244.897 394.36" stroke="#0C0A0A" stroke-miterlimit="10"/>
<path id="Vector_19" d="M289.758 388.168C289.758 388.168 284.242 398.593 262.915 392.322C262.915 392.322 256.296 391.538 252.619 393.89C252.619 393.89 248.206 396.32 244.897 394.36" stroke="#0C0A0A" stroke-miterlimit="10"/>
<path id="Vector_20" d="M220.996 406.432C222.025 407.842 244.014 422.657 268.872 406.432" stroke="#0C0A0A" stroke-miterlimit="10"/>
<path id="Vector 1" d="M247 390C239 385 226.5 390.833 221 394C223 401.5 233.5 411 245 409.5C256.5 408 267.5 407 269.5 393.5C260.3 387.5 255 387 247 390Z" fill="#D94C4C" fill-opacity="0.5"/>
</g>
<g id="hair">
<path id="Vector_21" d="M237.469 78.1178C237.469 78.1178 232.248 89.5621 181.871 83.9183C181.871 83.9183 136.495 102.888 121.566 256.054C121.566 256.054 94.8699 353.096 176.061 424.506C176.061 424.506 219.745 465.972 176.061 601.266H5.80987L0 347.217C0 347.217 33.3148 150.311 67.4386 91.9921C67.4386 91.9921 131.568 -65.7206 257.252 19.0147C257.252 19.0147 341.311 -38.3639 387.937 42.7657C387.937 42.7657 417.06 65.576 417.06 164.029C417.06 164.029 433.019 239.671 480.013 281.138C480.013 281.138 497.001 320.801 484.499 400.128C484.499 400.128 458.685 426.465 492 481.649V603.853H323.293C323.293 603.853 300.495 607.929 309.688 572.42C318.881 536.911 314.248 487.136 333.442 452.568C333.442 452.568 363.374 372.301 363.374 355.918C363.374 355.918 377.715 285.684 371.39 266.558C371.39 266.558 345.062 24.972 259.311 75.1391C259.311 75.1391 244.309 76.0797 240.558 81.9587L237.469 78.1178Z" fill="black"/>
</g>
<g id="nose">
<path id="Vector_22" d="M237.415 357.579C237.415 357.579 238.004 346.683 225.575 349.349C228.058 351.143 230.862 352.37 233.812 352.954C233.812 352.954 237.636 355.149 237.415 357.579Z" fill="black"/>
<path id="Vector_23" d="M238.298 357.03C237.489 358.755 246.608 362.047 250.8 357.109" stroke="black" stroke-miterlimit="10"/>
<path id="Vector_24" d="M250.212 357.579C250.212 357.579 249.623 346.683 262.052 349.349C259.569 351.143 256.765 352.37 253.815 352.954C253.815 352.954 249.991 355.149 250.212 357.579Z" fill="black"/>
<path id="Vector_25" d="M266.244 350.524C266.023 350.759 265.729 354.914 259.625 355.854" stroke="black" stroke-miterlimit="10"/>
<path id="Vector_26" d="M218.441 350.524C218.441 350.524 218.515 354.522 225.06 355.854" stroke="black" stroke-miterlimit="10"/>
</g>
</g>
<defs>
<linearGradient id="paint0_linear" x1="169.315" y1="276.989" x2="183.793" y2="243.337" gradientUnits="userSpaceOnUse">
<stop stop-color="white"/>
<stop offset="0.5"/>
</linearGradient>
<linearGradient id="paint1_linear" x1="320" y1="273.5" x2="320" y2="252" gradientUnits="userSpaceOnUse">
<stop stop-color="white"/>
<stop offset="1"/>
</linearGradient>
<clipPath id="clip0">
<rect width="492" height="610" fill="white"/>
</clipPath>
</defs>
</svg>
