<svg width="220" height="535" viewBox="0 0 220 535" fill="none" xmlns="http://www.w3.org/2000/svg">
<rect width="220" height="535" fill="#E5E5E5"/>
<g id="undraw_personal_training_0dqn 1">
<path id="backhair" d="M181.48 30.265H109.034V120.608H181.48V30.265Z" fill="#2F2E41"/>
<g id="body">
<path id="Vector" d="M49.2097 451.681L39.3307 488.038L55.7967 500.157L60.1867 496.852L67.8707 459.393L49.2097 451.681Z" fill="#FFB8B8"/>
<path id="Vector_2" d="M173.248 448.376L169.955 492.445H190.811V451.681L173.248 448.376Z" fill="#FFB8B8"/>
<path id="Vector_3" d="M107.387 169.635V196.077L148.002 202.687L183.127 188.365L176.541 171.838L107.387 169.635Z" fill="#FFB8B8"/>
<path id="Vector_4" d="M148.001 72.682C163.157 72.682 175.443 60.3504 175.443 45.1385C175.443 29.9266 163.157 17.595 148.001 17.595C132.846 17.595 120.559 29.9266 120.559 45.1385C120.559 60.3504 132.846 72.682 148.001 72.682Z" fill="#FFB8B8"/>
<path id="Vector_5" d="M129.89 62.2155C129.89 62.2155 145.257 80.9451 114.522 95.2677C83.7871 109.59 136.476 169.084 136.476 169.084C136.476 169.084 197.946 145.948 192.457 100.776C192.457 100.776 155.136 94.1659 163.918 63.3172L129.89 62.2155Z" fill="#FFB8B8"/>
<path id="Vector_6" d="M113.424 94.166C113.424 94.166 88.1778 90.8607 87.0801 111.794C85.9825 132.727 87.0801 183.407 87.0801 183.407C87.0801 183.407 76.1033 227.477 81.5918 266.038C81.5918 266.038 75.0057 311.209 92.5685 309.005C110.131 306.802 96.9592 262.732 96.9592 262.732L104.643 191.119L101.35 138.236L115.62 106.285L113.424 94.166Z" fill="#FFB8B8"/>
<path id="Vector_7" d="M186.084 99.0332C186.084 99.0332 210.02 98.5729 211.118 116.201C212.216 133.829 203.434 187.814 203.434 187.814L190.262 194.424L178.188 156.965L186.084 99.0332Z" fill="#FFB8B8"/>
<path id="Vector_8" d="M193.006 189.467L190.811 194.975L197.397 211.501C197.397 211.501 171.053 232.434 173.248 236.841C175.443 241.248 187.518 231.333 187.518 231.333L205.081 240.147C205.081 240.147 219.35 224.722 212.764 210.4C209.116 202.7 206.064 194.731 203.634 186.565C203.634 186.565 194.104 186.161 193.006 189.467Z" fill="#FFB8B8"/>
<path id="Vector_9" d="M118.364 48.9946C119.88 48.9946 121.108 47.0215 121.108 44.5876C121.108 42.1537 119.88 40.1806 118.364 40.1806C116.848 40.1806 115.62 42.1537 115.62 44.5876C115.62 47.0215 116.848 48.9946 118.364 48.9946Z" fill="#FFB8B8"/>
</g>
<path id="pants" d="M140.318 191.67L105.192 185.06L96.4104 256.673L74.4568 345.914C74.4568 345.914 41.5265 421.934 45.9172 439.562L48.1126 445.07L45.9172 454.986L67.8708 463.8L76.6522 449.477C76.6522 449.477 83.2383 459.393 94.2151 438.46C105.192 417.527 151.294 287.521 151.294 287.521L158.978 309.556C156.991 316.354 156.615 323.521 157.88 330.489C160.076 341.507 162.271 375.661 162.271 375.661C162.271 375.661 150.197 435.155 166.662 439.562L169.955 452.783L193.006 454.986L197.397 441.765C197.397 441.765 219.35 434.053 213.862 395.492C208.374 356.931 206.178 230.231 206.178 230.231L184.553 176.715L140.318 191.67Z" fill="#2F2E41"/>
<g id="shoes">
<path id="Vector_10" d="M45.9172 485.835C45.9172 485.835 40.4288 481.428 38.2334 482.53C36.0381 483.631 12.9868 513.378 12.9868 513.378C12.9868 513.378 -11.1622 532.108 6.40071 534.311C23.9636 536.515 72.2615 512.277 72.2615 506.768C72.2615 501.259 62.113 487.463 62.113 487.463C62.113 487.463 54.6986 493.547 45.9172 485.835Z" fill="#2F2E41"/>
<path id="Vector_11" d="M167.76 482.53C167.76 482.53 187.518 481.298 190.811 484.668C194.104 488.038 193.006 504.564 193.006 504.564C193.006 504.564 195.202 534.311 177.639 534.311C160.076 534.311 164.466 514.48 164.466 514.48L167.76 482.53Z" fill="#2F2E41"/>
</g>
<path id="bra" d="M108.485 90.3099L105.192 126.667C105.192 126.667 89.8243 142.092 107.387 163.025L105.192 179.551C105.192 179.551 145.806 177.347 153.49 179.551C161.173 181.754 184.903 177.777 184.903 177.777L185.322 165.228C185.322 165.228 196.299 149.804 193.006 126.667C189.713 103.531 193.006 95.8185 193.006 95.8185L185.322 94.7168C185.322 94.7168 180.383 128.32 146.355 131.625C146.355 131.625 104.094 135.481 116.169 90.3098L108.485 90.3099Z" fill="white"/>
<path id="hair" d="M150.746 0.517937C150.746 0.517937 122.206 -1.25788 115.62 16.5551C109.034 34.3681 97.5081 43.7198 97.5081 43.7198C97.5081 43.7198 79.3525 56.3868 88.4303 78.9993C88.4303 78.9993 60.187 98.0492 78.8476 114.971C78.8476 114.971 77.7499 131.894 88.7267 143.472C88.7267 143.472 97.5081 147.925 94.2151 150.597C90.9221 153.269 116.169 151.488 113.973 127.441C111.778 103.393 126.597 86.4538 126.597 86.4538C126.597 86.4538 112.327 55.2754 118.913 44.5876C122.912 38.0986 124.629 33.2596 127.948 30.459C129.797 28.9361 131.512 27.2567 133.073 25.4395C134.545 23.5676 136.549 22.1851 138.822 21.4737C141.094 20.7623 143.529 20.7553 145.806 21.4536C155.685 24.1256 157.88 32.1414 157.88 32.1414C157.88 32.1414 165.015 51.2903 177.09 60.1967C189.164 69.1032 167.76 84.6895 167.76 84.6895C167.76 84.6895 171.48 103.04 181.146 113.904C190.811 124.769 178.36 134.239 177.639 135.456C175.992 138.236 169.417 155.786 196.579 155.863C196.579 155.863 202.885 142.581 211.667 134.566C220.448 126.55 213.862 103.393 213.862 103.393C213.862 103.393 227.034 95.3772 212.764 75.783C212.764 75.783 217.155 57.9701 205.081 46.3917C205.081 46.3917 188.067 -5.71657 150.746 0.517937Z" fill="#2F2E41"/>
</g>
</svg>
